<svg height="24" viewBox="0 0 24 24" width="24" xmlns="http://www.w3.org/2000/svg"><path d="m11.995499 0c-1.0682227 2.61898783-1.7125218 4.33212022-2.90185039 6.87325951.72921038.77295645 1.62427809 1.67310107 3.07785109 2.68973334-1.5627416-.64306012-2.62872417-1.28867468-3.42534324-1.9586315-1.5221077 3.17611105-3.9068101 7.70033915-8.74615646 16.39563865 3.8035621-2.1958572 6.75200705-3.5496275 9.49981901-4.0661903-.1179826-.5074824-.18507824-1.0564243-.18052172-1.6291846l.00452174-.1218504c.06036173-2.436836 1.32799987-4.3107628 2.82964237-4.1835273 1.5016417.1272362 2.6688485 2.2070134 2.6084938 4.6438515-.0113461.4585356-.0630609.8996409-.15344 1.3087623 2.7179754.5316848 5.6349004 1.8819894 9.3869982 4.0481388-.7398476-1.3620952-1.4002162-2.5899247-2.0308458-3.7593089-.9933355-.7699074-2.0294468-1.7719449-4.1429075-2.8567128 1.4526747.377465 2.4927581.8129592 3.303485 1.2997362-6.4117699-11.93762507-6.9309908-13.52388791-9.1297461-18.6837145z" fill="#1793d1" fill-rule="evenodd"/></svg>